<svg xmlns="http://www.w3.org/2000/svg" viewBox="0 0 800 514"><style>.st6,.st7{fill:#b3e3ff;stroke:#404040;stroke-width:4;stroke-miterlimit:10}.st7{fill:#b18be8}.st10{fill:#404040}.st11,.st12{fill:none;stroke:#404040;stroke-width:4;stroke-linecap:round;stroke-linejoin:round;stroke-miterlimit:10}.st12{fill:#b18be8}.st14{fill:none}.st14,.st15,.st26,.st27{stroke:#404040;stroke-width:4;stroke-miterlimit:10}.st15{fill:#4ed1a1}.st26,.st27{stroke-linejoin:round}.st26{fill:#4ed1a1;stroke-linecap:round}.st27{fill:#4cd3d6}.st41,.st45{fill:none;stroke:#ccc}.st41{stroke-width:4;stroke-linecap:round;stroke-linejoin:round}.st45{stroke-dasharray:0,14.7877}.st45,.st46,.st47{stroke-width:4;stroke-linecap:round;stroke-linejoin:round}.st46{fill:none;stroke:#ccc;stroke-dasharray:0,14.9632}.st47{fill:#b3e3ff;stroke:#404040;stroke-miterlimit:10}.st48{fill:none;stroke:#ccc;stroke-dasharray:0,12.543}.st48,.st49,.st50{stroke-width:4;stroke-linecap:round;stroke-linejoin:round}.st49{fill:none;stroke:#ccc;stroke-dasharray:0,13.6844}.st50{stroke-dasharray:0,13.7717}.st50,.st51,.st52{fill:none;stroke:#ccc}.st51{stroke-width:4;stroke-linecap:round;stroke-linejoin:round;stroke-dasharray:0,13.6492}.st52{stroke-dasharray:0,13.907}.st52,.st53,.st54,.st55{stroke-width:4;stroke-linecap:round;stroke-linejoin:round}.st53{fill:#4cd3d6;stroke:#404040;stroke-miterlimit:10}.st54,.st55{fill:none;stroke:#ccc;stroke-dasharray:0,14.9858}.st55{stroke-dasharray:0,14.0118}</style><path d="M145.5 5.7h96.2v50h-96.2z" class="st53"/><path d="M170.8 32.4h-1.6v4.3h-1.5v-10.6h4c2 0 3.3 1.4 3.3 3.2 0 1.5-1 2.7-2.6 3l2.5 4.5h-1.7l-2.4-4.4zm.7-1.3c1.2 0 2-.7 2-1.8s-.8-1.8-2-1.8h-2.2v3.6h2.2zm12.1 3.6c-.4 1.3-1.6 2.3-3.2 2.3-1.9 0-3.6-1.4-3.6-3.9 0-2.3 1.6-3.8 3.5-3.8 2.2 0 3.5 1.5 3.5 3.8v.5h-5.4c0 1.3 1 2.2 2.2 2.2 1.2 0 1.8-.6 2-1.5l1 .4zm-1.4-2.3c0-1-.7-1.8-2-1.8-1.2 0-1.9.9-2 1.8h4zm4 4.3v-10.8h1.4v10.9h-1.4zm10.8-2c-.4 1.3-1.6 2.3-3.2 2.3-1.9 0-3.6-1.4-3.6-3.9 0-2.3 1.6-3.8 3.5-3.8 2.2 0 3.5 1.5 3.5 3.8v.5h-5.4c0 1.3 1 2.2 2.2 2.2 1.2 0 1.8-.6 2-1.5l1 .4zm-1.4-2.3c0-1-.7-1.8-2-1.8-1.2 0-1.9.9-2 1.8h4zm5.8.2l2-.3c.4-.1.6-.3.6-.5 0-.7-.5-1.3-1.6-1.3-1 0-1.5.6-1.6 1.5l-1.3-.3c.2-1.4 1.4-2.3 3-2.3 2.2 0 3 1.2 3 2.6v3.6c0 .6.1 1 .1 1.2h-1.6c0-.2-.1-.5-.1-1-.3.5-1 1.2-2.3 1.2-1.5 0-2.4-1-2.4-2.2 0-1.3.9-2 2.2-2.2zm2.5 1v-.3l-2.2.3c-.6.1-1 .4-1 1.1 0 .5.5 1 1.2 1 1 .1 2-.5 2-2.1zm4.9.8c.1.8.7 1.3 1.7 1.3.8 0 1.2-.5 1.2-1 0-.4-.3-.8-.9-.9l-1.2-.3c-1.1-.2-1.8-1-1.8-2 0-1.2 1.2-2.3 2.6-2.3 2 0 2.6 1.3 2.7 1.9l-1.2.5c-.1-.4-.4-1.2-1.5-1.2-.7 0-1.2.5-1.2 1 0 .4.3.8.8.9l1.2.3c1.3.3 2 1.1 2 2.1s-.9 2.2-2.6 2.2c-2 0-2.8-1.3-2.9-2.1l1.1-.4zm13.2.3c-.4 1.3-1.6 2.3-3.2 2.3-1.9 0-3.6-1.4-3.6-3.9 0-2.3 1.6-3.8 3.4-3.8 2.2 0 3.5 1.5 3.5 3.8v.5h-5.4c0 1.3 1 2.2 2.2 2.2 1.2 0 1.8-.6 2-1.5l1.1.4zm-1.5-2.3c0-1-.7-1.8-2-1.8-1.2 0-1.9.9-2 1.8h4z" class="st10"/><path d="M283.7 5.7h96.2v50h-96.2z" class="st12"/><path d="M304 36.7v-10.6h3.7c2.7 0 5.1 1.8 5.1 5.3s-2.4 5.3-5.1 5.3h-3.7zm3.7-1.3c2 0 3.6-1.3 3.6-4s-1.6-4-3.6-4h-2.2v8h2.2zm14-.7c-.4 1.3-1.6 2.3-3.2 2.3-1.9 0-3.6-1.4-3.6-3.9 0-2.3 1.6-3.8 3.5-3.8 2.2 0 3.5 1.5 3.5 3.8v.5h-5.4c0 1.3 1 2.2 2.2 2.2 1.2 0 1.8-.6 2-1.5l1 .4zm-1.4-2.3c0-1-.7-1.8-2-1.8-1.2 0-1.9.9-2 1.8h4zm7.5 4.3h-1.4l-2.9-7.2h1.6l2.1 5.6 2.1-5.6h1.5l-3 7.2zm10.7-2c-.4 1.3-1.6 2.3-3.2 2.3-1.9 0-3.6-1.4-3.6-3.9 0-2.3 1.6-3.8 3.5-3.8 2.2 0 3.5 1.5 3.5 3.8v.5h-5.4c0 1.3 1 2.2 2.2 2.2 1.2 0 1.8-.6 2-1.5l1 .4zm-1.4-2.3c0-1-.7-1.8-2-1.8-1.2 0-1.9.9-2 1.8h4zm4 4.3v-10.8h1.4v10.9h-1.4zm11.3-3.6c0 2.2-1.5 3.8-3.7 3.8s-3.7-1.6-3.7-3.8c0-2.2 1.5-3.8 3.7-3.8s3.7 1.6 3.7 3.8zm-1.4 0c0-1.7-1-2.6-2.2-2.6-1.2 0-2.2.9-2.2 2.6 0 1.7 1.1 2.6 2.2 2.6s2.2-.9 2.2-2.6zm4 6.5v-10.1h1.4v1.1c.4-.7 1.2-1.3 2.4-1.3 2.2 0 3.3 1.7 3.3 3.8 0 2.1-1.2 3.8-3.4 3.8-1.1 0-2-.5-2.3-1.2v3.8h-1.4zm3.5-9c-1.3 0-2.1 1.1-2.1 2.5 0 1.5.9 2.6 2.1 2.6 1.3 0 2.1-1.1 2.1-2.6 0-1.4-.8-2.5-2.1-2.5z" class="st10"/><path d="M7.8 5.7h96.2v50h-96.2z" class="st47"/><path d="M42.5 36.7v-8.3l-3.6 8.3h-1.3l-3.6-8.3v8.3h-1.5v-10.6h2l3.7 8.7 3.8-8.7h2v10.6h-1.5zm6.4-4.1l2-.3c.4-.1.6-.3.6-.5 0-.7-.5-1.3-1.6-1.3-1 0-1.5.6-1.6 1.5l-1.4-.3c.2-1.4 1.4-2.3 3-2.3 2.2 0 3 1.2 3 2.6v3.6c0 .6.1 1 .1 1.2h-1.4c0-.2-.1-.5-.1-1-.3.5-1 1.2-2.3 1.2-1.5 0-2.4-1-2.4-2.2-.1-1.3.9-2 2.1-2.2zm2.5 1v-.3l-2.2.3c-.6.1-1 .4-1 1.1 0 .5.5 1 1.2 1 1.1.1 2-.5 2-2.1zm5 .8c.1.8.7 1.3 1.7 1.3.8 0 1.2-.5 1.2-1 0-.4-.3-.8-.9-.9l-1.2-.3c-1.1-.2-1.8-1-1.8-2 0-1.2 1.2-2.3 2.6-2.3 2 0 2.6 1.3 2.7 1.9l-1.2.5c-.1-.4-.4-1.2-1.5-1.2-.7 0-1.2.5-1.2 1 0 .4.3.8.8.9l1.2.3c1.3.3 2 1.1 2 2.1s-.9 2.2-2.6 2.2c-2 0-2.8-1.3-2.9-2.1l1.1-.4zm8.8-4.9h1.6v1.3h-1.6v3.8c0 .7.3 1 1 1 .2 0 .4 0 .6-.1v1.2c-.1 0-.5.1-1 .1-1.2 0-2-.8-2-2.1v-4h-1.4v-1.3h.4c.8 0 1.1-.5 1.1-1.1v-1.2h1.3v2.4zm10.4 5.2c-.4 1.3-1.6 2.3-3.2 2.3-1.9 0-3.6-1.4-3.6-3.9 0-2.3 1.6-3.8 3.5-3.8 2.2 0 3.5 1.5 3.5 3.8v.5h-5.4c0 1.3 1 2.2 2.2 2.2 1.2 0 1.8-.6 2-1.5l1 .4zm-1.4-2.3c0-1-.7-1.8-2-1.8-1.2 0-1.9.9-2 1.8h4zm8-1.5h-.6c-1.2 0-2 .6-2 2.2v3.6h-1.4v-7.2h1.4v1.3c.5-1.1 1.4-1.4 2.2-1.4h.5v1.5z" class="st10"/><path d="M420.9 5.7h96.2v50h-96.2z" class="st26"/><path d="M443.4 36.2v-10.6h6.5v1.4h-5v3.4h4.5v1.4h-4.5v4.5h-1.5zm14.6-2c-.4 1.3-1.6 2.3-3.2 2.3-1.9 0-3.6-1.4-3.6-3.9 0-2.3 1.6-3.8 3.5-3.8 2.2 0 3.5 1.5 3.5 3.8v.5h-5.4c0 1.3 1 2.2 2.2 2.2 1.2 0 1.8-.6 2-1.5l1 .4zm-1.4-2.3c0-1-.7-1.8-2-1.8-1.2 0-1.9.9-2 1.8h4zm5.8.2l1.9-.3c.4-.1.6-.3.6-.5 0-.7-.5-1.3-1.6-1.3-1 0-1.5.6-1.6 1.5l-1.3-.3c.1-1.4 1.4-2.3 3-2.3 2.2 0 3 1.2 3 2.6v3.5c0 .6.1 1 .1 1.2h-1.5c0-.2-.1-.5-.1-1-.3.5-1 1.2-2.3 1.2-1.5 0-2.4-1-2.4-2.2 0-1.2.9-1.9 2.2-2.1zm2.5 1v-.3l-2.2.3c-.6.1-1 .4-1 1.1 0 .5.4 1 1.2 1 1 .1 2-.5 2-2.1zm6.2-4.1h1.6v1.3h-1.6v3.7c0 .7.3 1 1 1 .2 0 .4 0 .6-.1v1.2c-.1 0-.5.1-1 .1-1.2 0-2-.8-2-2.1v-4h-1.4v-1.1h.4c.8 0 1.1-.5 1.1-1.1v-1.2h1.3v2.3zm6.8 7.4c-1.7 0-2.7-1.3-2.7-2.9v-4.5h1.4v4.3c0 1 .5 1.9 1.6 1.9s1.7-.8 1.7-1.8v-4.4h1.4v5.9c0 .6 0 1.1.1 1.3h-1.4c0-.2-.1-.6-.1-.9-.2.8-1.1 1.1-2 1.1zm10.6-6h-.6c-1.2 0-2 .6-2 2.2v3.6h-1.4v-7.2h1.4v1.3c.5-1.1 1.4-1.4 2.2-1.4h.5v1.5zm8.5 3.8c-.4 1.3-1.6 2.3-3.2 2.3-1.9 0-3.6-1.4-3.6-3.9 0-2.3 1.6-3.8 3.5-3.8 2.2 0 3.5 1.5 3.5 3.8v.5h-5.4c0 1.3 1 2.2 2.2 2.2 1.2 0 1.8-.6 2-1.5l1 .4zm-1.4-2.3c0-1-.7-1.8-2-1.8-1.2 0-1.9.9-2 1.8h4z" class="st10"/><path d="M558.2 5.7h96.2v50h-96.2z" class="st26"/><path d="M580.8 36.2v-10.6h6.5v1.4h-5v3.4h4.5v1.4h-4.5v4.5h-1.5zm14.6-2c-.4 1.3-1.6 2.3-3.2 2.3-1.9 0-3.6-1.4-3.6-3.9 0-2.3 1.6-3.8 3.5-3.8 2.2 0 3.5 1.5 3.5 3.8v.5h-5.6c0 1.3 1 2.2 2.2 2.2 1.2 0 1.8-.6 2-1.5l1.2.4zm-1.4-2.3c0-1-.7-1.8-2-1.8-1.2 0-1.9.9-2 1.8h4zm5.7.2l2-.3c.4-.1.6-.3.6-.5 0-.7-.5-1.3-1.6-1.3-1 0-1.5.6-1.6 1.5l-1.3-.3c.2-1.4 1.4-2.3 3-2.3 2.2 0 3 1.2 3 2.6v3.5c0 .6.1 1 .1 1.2h-1.4c0-.2-.1-.5-.1-1-.3.5-1 1.2-2.3 1.2-1.5 0-2.4-1-2.4-2.2-.2-1.2.8-1.9 2-2.1zm2.5 1v-.3l-2.2.3c-.6.1-1 .4-1 1.1 0 .5.5 1 1.2 1 1.1.1 2-.5 2-2.1zm6.3-4.1h1.6v1.3h-1.6v3.7c0 .7.3 1 1 1 .2 0 .4 0 .6-.1v1.2c-.1 0-.5.1-1 .1-1.2 0-2-.8-2-2.1v-4h-1.4v-1.1h.4c.8 0 1.1-.5 1.1-1.1v-1.2h1.3v2.3zm6.8 7.4c-1.7 0-2.7-1.3-2.7-2.9v-4.5h1.4v4.3c0 1 .5 1.9 1.6 1.9s1.7-.8 1.7-1.8v-4.4h1.4v5.9c0 .6 0 1.1.1 1.3h-1.4c0-.2-.1-.6-.1-.9-.3.8-1.2 1.1-2 1.1zm10.6-6h-.6c-1.2 0-2 .6-2 2.2v3.6h-1.4v-7.2h1.4v1.3c.5-1.1 1.4-1.4 2.2-1.4h.5v1.5zm8.5 3.8c-.4 1.3-1.6 2.3-3.2 2.3-1.9 0-3.6-1.4-3.6-3.9 0-2.3 1.6-3.8 3.5-3.8 2.2 0 3.5 1.5 3.5 3.8v.5h-5.4c0 1.3 1 2.2 2.2 2.2 1.2 0 1.8-.6 2-1.5l1 .4zm-1.5-2.3c0-1-.7-1.8-2-1.8-1.2 0-1.9.9-2 1.8h4z" class="st10"/><path d="M424.3 399.1c0-17 13.8-30.8 30.8-30.8" class="st14"/><path d="M254 399.1c0-17-13.8-30.8-30.8-30.8m-58.9 123.1h214" class="st14"/><circle cx="315.7" cy="491.4" r="15.8" class="st15"/><circle cx="362.5" cy="491.4" r="15.8" class="st15"/><circle cx="242.3" cy="491.4" r="15.8" class="st15"/><path d="M776.1 368.4h-596.4" class="st14"/><circle cx="485.1" cy="368.4" r="15.8" class="st7"/><circle cx="315.7" cy="368.4" r="15.8" class="st7"/><circle cx="776.1" cy="368.4" r="15.8" class="st7"/><path d="M254 399.1c0 17 13.8 30.8 30.8 30.8h107.9" class="st14"/><circle cx="315.7" cy="429.9" r="15.8" class="st15"/><circle cx="362.5" cy="429.9" r="15.8" class="st15"/><path d="M392.6 429.9h.9c17 0 30.7-13.8 30.7-30.8" class="st14"/><path d="M59.1 306.9h-37.4" class="st54"/><path d="M14.2 306.9m528.6 0" class="st41"/><path d="M528.8 306.9h-427.4" class="st55"/><path d="M94.4 306.9m681.7 0" class="st41"/><path d="M761.3 306.9h-51.7" class="st45"/><path d="M702.2 306.9m73.9-61.5" class="st41"/><path d="M761.1 245.4h-82.3" class="st46"/><path d="M84.8 276.1c0-17-13.8-30.8-30.8-30.8m30.8 30.8" class="st14"/><circle cx="148.6" cy="491.4" r="15.8" class="st15"/><path d="M644.9 245.4h-605.8" class="st14"/><circle cx="23.3" cy="245.4" r="15.8" class="st6"/><circle cx="315.7" cy="245.4" r="15.8" class="st6"/><circle cx="644.9" cy="245.4" r="15.8" class="st6"/><path d="M48.9 139.9h42.5v37.5h-42.5z" class="st47"/><path d="M62.4 163.1h-1.2l-2.5-6.3h1.4l1.8 4.8 1.8-4.8h1.3l-2.6 6.3zm4.7-7.2c.5-.8 1.4-1.4 2.6-1.4s2 .5 2.6 1.4c.6.8.8 1.9.8 3.1s-.2 2.2-.8 3.1c-.5.8-1.4 1.4-2.6 1.4s-2-.5-2.6-1.4c-.6-.8-.8-1.9-.8-3.1s.3-2.3.8-3.1zm1.3 5.7c.3.3.7.5 1.3.5s1-.2 1.3-.5c.5-.5.7-1.4.7-2.7s-.2-2.2-.7-2.7c-.3-.3-.7-.5-1.3-.5s-1 .2-1.3.5c-.5.5-.7 1.4-.7 2.7s.2 2.2.7 2.7zm7.2-.2c.5 0 .9.4.9.9s-.4.9-.9.9-.9-.4-.9-.9.4-.9.9-.9zm4 1.7v-5.9h-2v-.9c1.2 0 2-.7 2.2-1.6h1.1v8.4h-1.3z" class="st10"/><path d="M70.2 211.5v-17.6m8.1 11.1l-8.1 8.1-8.2-8.1" class="st11"/><path d="M294.4 139.9h42.5v37.5h-42.5z" class="st47"/><path d="M306.4 163.1h-1.2l-2.5-6.3h1.4l1.8 4.8 1.8-4.8h1.3l-2.6 6.3zm4.6-7.2c.5-.8 1.4-1.4 2.6-1.4s2 .5 2.6 1.4c.6.8.8 1.9.8 3.1s-.2 2.2-.8 3.1c-.5.8-1.4 1.4-2.6 1.4s-2-.5-2.6-1.4c-.6-.8-.8-1.9-.8-3.1s.3-2.3.8-3.1zm1.3 5.7c.3.3.7.5 1.3.5s1-.2 1.3-.5c.5-.5.7-1.4.7-2.7s-.2-2.2-.7-2.7c-.3-.3-.7-.5-1.3-.5s-1 .2-1.3.5c-.5.5-.7 1.4-.7 2.7s.2 2.2.7 2.7zm7.2-.2c.5 0 .9.4.9.9s-.4.9-.9.9-.9-.4-.9-.9.4-.9.9-.9zm3.1-3.8v-.3c0-1.4 1.1-2.7 2.9-2.7 1.8 0 2.8 1.2 2.8 2.6 0 1.1-.6 2-1.6 2.6l-1.7 1.1c-.5.3-.9.7-1 1.2h4.3v1.2h-5.9c0-1.4.6-2.4 2-3.4l1.4-.9c.8-.5 1.2-1.1 1.2-1.8 0-.8-.5-1.5-1.6-1.5s-1.6.8-1.6 1.7v.4l-1.2-.2z" class="st10"/><path d="M315.7 211.5v-17.6m8.1 11.1l-8.1 8.1-8.2-8.1" class="st11"/><path d="M623.6 139.9h42.5v37.5h-42.5z" class="st47"/><path d="M636.7 163.1h-1.2l-2.5-6.3h1.4l1.8 4.8 1.8-4.8h1.3l-2.6 6.3zm5.6 0v-5.9h-2v-.9c1.2 0 2-.7 2.2-1.6h1.1v8.4h-1.3zm4.6-1.7c.5 0 .9.4.9.9s-.4.9-.9.9-.9-.4-.9-.9.3-.9.9-.9zm3.6-5.5c.5-.8 1.4-1.4 2.6-1.4s2 .5 2.6 1.4c.6.8.8 1.9.8 3.1s-.2 2.2-.8 3.1c-.5.8-1.4 1.4-2.6 1.4s-2-.5-2.6-1.4c-.6-.8-.8-1.9-.8-3.1s.2-2.3.8-3.1zm1.2 5.7c.3.3.7.5 1.3.5s1-.2 1.3-.5c.5-.5.7-1.4.7-2.7s-.2-2.2-.7-2.7c-.3-.3-.7-.5-1.3-.5s-1 .2-1.3.5c-.5.5-.7 1.4-.7 2.7s.2 2.2.7 2.7z" class="st10"/><path d="M644.9 211.5v-17.6m8.1 11.1l-8.1 8.1-8.1-8.1" class="st11"/><path d="M64.3 368.4h-43.9" class="st48"/><path d="M14.2 368.4m246.3 61.5" class="st41"/><path d="M246.8 429.9h-225.8" class="st49"/><path d="M14.2 429.9m761.9 0" class="st41"/><path d="M762.3 429.9h-337.4" class="st50"/><path d="M418 429.9m-294.6 61.5" class="st41"/><path d="M109.7 491.4h-88.7" class="st51"/><path d="M14.2 491.4m761.9 0" class="st41"/><path d="M762.2 491.4h-368.5" class="st52"/><path d="M84.8 275.7v61.9c0 17 13.8 30.8 30.8 30.8h95.7" class="st14"/><circle cx="195.5" cy="368.4" r="15.7" class="st7"/><circle cx="148.6" cy="368.4" r="15.8" class="st7"/><path d="M536.3 337.6c0 17-13.8 30.8-30.7 30.8m201-30.8c0 17 13.8 30.8 30.8 30.8h23m-192.5-61.5h-.9c-17 0-30.8 13.8-30.8 30.8m170.4-.1c0-17-13.8-30.8-30.8-30.8h-107.9" class="st14"/><circle cx="644.9" cy="306.9" r="15.8" class="st27"/><circle cx="598" cy="306.9" r="15.8" class="st27"/><path d="M148.6 384.1v91.5m496.3-184.5v-30" class="st14"/></svg>